<svg xmlns="http://www.w3.org/2000/svg" xmlns:xlink="http://www.w3.org/1999/xlink" width="1840.098" height="864" viewBox="0 0 1840.098 864">
  <defs>
    <clipPath id="clip-path">
      <path id="Path_48192" data-name="Path 48192" d="M20,0H1820a20,20,0,0,1,20,20l.065,704.9a20,20,0,0,1-20,20s-706.732.088-705.958.1c-20.162.313-20.126,19.847-20.107,19.851.13.1,0,79.2,0,79.2s-.292,19.565-19.986,19.9C1073.941,863.938,20,864,20,864A20,20,0,0,1,0,844V20A20,20,0,0,1,20,0Z" transform="translate(52)" fill="#00ad79"/>
    </clipPath>
  </defs>
  <g id="Group_31450" data-name="Group 31450" transform="translate(-39.967 -40)">
    <g id="Group_31395" data-name="Group 31395">
      <path id="Path_48191" data-name="Path 48191" d="M20,0H1820a20,20,0,0,1,20,20l.065,704.9a20,20,0,0,1-20,20s-706.732.088-705.958.1c-20.162.313-20.126,19.847-20.107,19.851.13.1,0,79.2,0,79.2s-.292,19.565-19.986,19.9C1073.941,863.938,20,864,20,864A20,20,0,0,1,0,844V20A20,20,0,0,1,20,0Z" transform="translate(40 40)" fill="#009a93"/>
      <g id="Mask_Group_15169" data-name="Mask Group 15169" transform="translate(-12.033 40)" clip-path="url(#clip-path)">
        <g id="Group_31133" data-name="Group 31133" transform="translate(-48.576 -30.447)">
          <path id="Path_48185" data-name="Path 48185" d="M932.4,19.7c538.562,0,993.78-125.137,993.78,255.369S1547.895,1158.487,978.2,1182.887,0,893.37,0,512.864,393.839,19.7,932.4,19.7Z" transform="translate(164.946 -376.246) rotate(45)" fill="#006c91"/>
          <path id="Path_48182" data-name="Path 48182" d="M418.918,8.851c241.97,0,446.494-56.223,446.494,114.734S695.452,520.5,439.5,531.458,0,401.381,0,230.424,176.948,8.851,418.918,8.851Z" transform="matrix(0.899, 0.438, -0.438, 0.899, 904.685, 121.569)" fill="#00afa7"/>
          <path id="Path_48783" data-name="Path 48783" d="M430.247,8.851c248.514,0,458.569-56.223,458.569,114.734S714.26,520.5,451.382,531.458,0,401.381,0,230.424,181.733,8.851,430.247,8.851Z" transform="matrix(0.996, 0.087, -0.087, 0.996, 206.633, 675.402)" fill="#0095c9"/>
          <path id="Path_48184" data-name="Path 48184" d="M390.537,8.251c225.577,0,416.245-52.414,416.245,106.961S648.336,485.233,409.72,495.453,0,374.188,0,214.813,164.96,8.251,390.537,8.251Z" transform="matrix(0.809, -0.588, 0.588, 0.809, 1076.143, 586.827)" fill="#009a93"/>
          <path id="Path_48183" data-name="Path 48183" d="M518.2,10.949c299.313,0,552.307-69.547,552.307,141.924S860.264,643.845,543.649,657.406,0,496.5,0,285.032,218.882,10.949,518.2,10.949Z" transform="matrix(-0.105, 0.995, -0.995, -0.105, 2199.679, -53.218)" fill="#006c91"/>
          <path id="Path_48186" data-name="Path 48186" d="M309.882,6.547c178.99,0,330.281-41.589,330.281,84.871S514.439,385.021,325.1,393.13,0,296.91,0,170.45,130.892,6.548,309.882,6.547Z" transform="translate(-118.191 112.612) rotate(42)" fill="#0095c9"/>
        </g>
      </g>
    </g>
  </g>
</svg>
