<svg xmlns="http://www.w3.org/2000/svg" width="18" height="24" viewBox="0 0 18 24">
  <g id="_01_align_center" data-name="01 align center" transform="translate(-3)">
    <path id="Path_48189" data-name="Path 48189" d="M21,24H19V18.957A2.96,2.96,0,0,0,16.043,16H7.957A2.96,2.96,0,0,0,5,18.957V24H3V18.957A4.963,4.963,0,0,1,7.957,14h8.086A4.963,4.963,0,0,1,21,18.957Z" fill="#009a93"/>
    <path id="Path_48190" data-name="Path 48190" d="M12,12a6,6,0,1,1,6-6A6,6,0,0,1,12,12ZM12,2a4,4,0,1,0,4,4A4,4,0,0,0,12,2Z" fill="#009a93"/>
  </g>
</svg>
