<svg xmlns="http://www.w3.org/2000/svg" width="33.563" height="33.563" viewBox="0 0 33.563 33.563">
  <g id="close_2_" data-name="close (2)" transform="translate(1 1)">
    <path id="Path_48762" data-name="Path 48762" d="M25.645,31.563H5.918A5.918,5.918,0,0,1,0,25.645V5.918A5.918,5.918,0,0,1,5.918,0H25.645a5.918,5.918,0,0,1,5.918,5.918V25.645A5.918,5.918,0,0,1,25.645,31.563Zm0,0" fill="none" stroke="#16161d" stroke-width="2"/>
    <g id="Group_31303" data-name="Group 31303" transform="translate(10.145 10.145)">
      <path id="Path_48763" data-name="Path 48763" d="M175.554,173.7l-8.834-8.834a.985.985,0,0,0-1.395,0l-.465.465a.985.985,0,0,0,0,1.395l8.834,8.834a.985.985,0,0,0,1.395,0l.465-.465A.985.985,0,0,0,175.554,173.7Zm0,0" transform="translate(-164.572 -164.572)" fill="#16161d"/>
      <path id="Path_48764" data-name="Path 48764" d="M173.7,164.862l-8.834,8.834a.985.985,0,0,0,0,1.395l.465.465a.985.985,0,0,0,1.395,0l8.834-8.834a.985.985,0,0,0,0-1.395l-.465-.465A.985.985,0,0,0,173.7,164.862Zm0,0" transform="translate(-164.572 -164.573)" fill="#16161d"/>
    </g>
  </g>
</svg>
