<svg xmlns="http://www.w3.org/2000/svg" width="34.066" height="34.132" viewBox="0 0 34.066 34.132">
  <g id="Group_31357" data-name="Group 31357" transform="translate(7038 -3863.922)">
    <path id="Path_48767" data-name="Path 48767" d="M-7179.518,3924.455s-.976-1.464-.274-4.27,2.806-4.422,4.849-4.331a5.337,5.337,0,0,1,4.728,4.331,5.971,5.971,0,0,1-.335,4.27" transform="translate(144.065 -35.694)" fill="none" stroke="#16161d" stroke-width="1"/>
    <path id="Path_48768" data-name="Path 48768" d="M-7185.951,3952.385c.614.021,12.169,0,12.169,0s.447-.044.392.31-.91,8.169-.91,8.169.03.336-.458.3-10.431,0-10.431,0-.509.086-.545-.3-.812-8.169-.812-8.169S-7186.565,3952.365-7185.951,3952.385Z" transform="translate(149.046 -63.625)" fill="none" stroke="#16161d" stroke-width="1"/>
    <path id="Path_48769" data-name="Path 48769" d="M-7179.479,3932.615a9.588,9.588,0,0,1,5.185-1.572,7.582,7.582,0,0,1,4.669,1.572" transform="translate(143.632 -47.309)" fill="none" stroke="#16161d" stroke-width="1"/>
    <path id="Path_48770" data-name="Path 48770" d="M-7149.214,3932.14a4.309,4.309,0,0,1-.169,4.823" transform="translate(120.623 -48.148)" fill="none" stroke="#16161d" stroke-width="1"/>
    <path id="Path_48771" data-name="Path 48771" d="M-7148.7,3932.14a4.309,4.309,0,0,0,.169,4.823" transform="translate(115.443 -48.148)" fill="none" stroke="#16161d" stroke-width="1"/>
    <line id="Line_149" data-name="Line 149" x2="2.119" transform="translate(-7032.084 3893.26)" fill="none" stroke="#16161d" stroke-width="1"/>
    <path id="Path_48772" data-name="Path 48772" d="M-7112.045,3937.2V3930.6s.045-.458-.261-.458h-4.359s-.375-.028-.375.458v13.188s.014.264.389.25,4.387,0,4.387,0,.333.028.319-.417,0-2.291,0-2.291" transform="translate(95.896 -46.624)" fill="none" stroke="#16161d" stroke-width="1"/>
    <path id="Path_48773" data-name="Path 48773" d="M-7111.969,3942.333l0-11.562s.045-.625-.265-.625h-4.429s-.381-.038-.381.625v17.99a.355.355,0,0,0,.4.341c.381-.019,4.457,0,4.457,0s.338.038.325-.568.012-2.069.012-2.069" transform="translate(104.137 -51.684)" fill="none" stroke="#16161d" stroke-width="1"/>
    <circle id="Ellipse_3425" data-name="Ellipse 3425" transform="translate(-7015.935 3892.922)" fill="#16161d"/>
    <circle id="Ellipse_3426" data-name="Ellipse 3426" transform="translate(-7007.935 3892.922)" fill="#16161d"/>
    <ellipse id="Ellipse_3427" data-name="Ellipse 3427" cx="1.5" cy="1" rx="1.5" ry="1" transform="translate(-7011.935 3863.922)" fill="#16161d"/>
    <ellipse id="Ellipse_3428" data-name="Ellipse 3428" cx="1.5" cy="1" rx="1.5" ry="1" transform="translate(-7016.935 3866.922)" fill="#16161d"/>
    <circle id="Ellipse_3429" data-name="Ellipse 3429" cx="1" cy="1" r="1" transform="translate(-7005.935 3866.922)" fill="#16161d"/>
    <path id="Path_48774" data-name="Path 48774" d="M-7087.9,3854.869s1.116,3.573,5.3,2.274c.037,0-2.11,4.614-2.11,4.614v1.772s0,.289-.353.289h-5.577a.252.252,0,0,1-.3-.289c.011-.339,0-1.772,0-1.772l-2.015-4.614a5.3,5.3,0,0,0,3.282-.06A3.137,3.137,0,0,0-7087.9,3854.869Z" transform="translate(77.478 10.928)" fill="none" stroke="#16161d" stroke-width="1"/>
    <line id="Line_150" data-name="Line 150" x2="6.358" transform="translate(-7013.482 3872.774)" fill="none" stroke="#16161d" stroke-width="1"/>
    <line id="Line_151" data-name="Line 151" y1="3.297" x2="5.651" transform="translate(-7022.666 3876.777)" fill="none" stroke="#16161d" stroke-width="1"/>
    <path id="Path_48775" data-name="Path 48775" d="M-7108.066,3900.635l2.027.208-.93,1.777" transform="translate(89.035 -24.061)" fill="none" stroke="#16161d" stroke-width="1"/>
  </g>
</svg>
