<svg xmlns="http://www.w3.org/2000/svg" width="24.674" height="34.345" viewBox="0 0 24.674 34.345">
  <g id="Group_31302" data-name="Group 31302" transform="translate(7927.5 -2021.293)">
    <line id="Line_143" data-name="Line 143" x2="22.674" transform="translate(-7926.5 2022.5)" fill="none" stroke="#16161d" stroke-linecap="round" stroke-width="2"/>
    <line id="Line_145" data-name="Line 145" x2="16.07" transform="translate(-7923.308 2030.645)" fill="none" stroke="#16161d" stroke-linecap="round" stroke-width="2"/>
    <line id="Line_144" data-name="Line 144" x2="22.674" transform="translate(-7926.5 2054.177)" fill="none" stroke="#16161d" stroke-linecap="round" stroke-width="2"/>
    <path id="Path_48759" data-name="Path 48759" d="M-7906.178,2022.5s-2.565,10.586,8.836,15.839c6.566,3.518,8.431,7.936,8.881,11.378.088,1.031.032,3.578.059,4.506" transform="translate(-17.866)" fill="none" stroke="#16161d" stroke-linecap="round" stroke-width="2"/>
    <path id="Path_48761" data-name="Path 48761" d="M-7888.649,2022.5s2.564,10.586-8.836,15.839c-6.567,3.518-8.431,7.936-8.881,11.378-.089,1.031-.034,3.578-.059,4.506" transform="translate(-17.866)" fill="none" stroke="#16161d" stroke-linecap="round" stroke-width="2"/>
    <path id="Path_48760" data-name="Path 48760" d="M-7906.425,2259.556l4.471-4.3s4.6-4.561,9.2,0c0,.041,4.194,4.3,4.194,4.3" transform="translate(-17.866 -205.333)" fill="none" stroke="#16161d" stroke-linecap="round" stroke-width="2"/>
  </g>
</svg>
