<svg viewBox="0 0 20 20" width="20px" height="20px" xmlns="http://www.w3.org/2000/svg">
<style>.profile{fill:#888888}</style>
<path class="profile" fill-rule="evenodd" clip-rule="evenodd" d="M9.66667 1.75439C8.86725 1.75439 8.08578 2.00019 7.42109 2.4607C6.75639 2.92122 6.23833 3.57577 5.9324 4.34158C5.62648 5.10739 5.54643 5.95007 5.70239 6.76305C5.85835 7.57603 6.24331 8.3228 6.80859 8.90893C7.37386 9.49505 8.09407 9.89421 8.87812 10.0559C9.13771 10.1095 9.40044 10.1362 9.66258 10.1365C9.66529 10.1365 9.668 10.1365 9.67071 10.1365C10.1976 10.1359 10.7219 10.0285 11.2134 9.81743C11.952 9.50022 12.5833 8.96304 13.0274 8.27383C13.4715 7.58462 13.7086 6.77433 13.7086 5.94542C13.7086 4.83389 13.2828 3.76788 12.5247 2.98191C11.7667 2.19594 10.7387 1.75439 9.66667 1.75439ZM9.67212 11.8908C9.66846 11.8908 9.6648 11.8908 9.66113 11.8908H8.68908C7.09855 11.8908 5.57316 12.546 4.44849 13.7121C3.32381 14.8783 2.69197 16.46 2.69197 18.1092C2.69197 18.1454 2.70584 18.1801 2.73052 18.2056C2.7552 18.2312 2.78867 18.2456 2.82357 18.2456H16.5098C16.5447 18.2456 16.5781 18.2312 16.6028 18.2056C16.6275 18.1801 16.6414 18.1454 16.6414 18.1092C16.6414 16.46 16.0095 14.8783 14.8848 13.7121C13.7602 12.546 12.2348 11.8908 10.6443 11.8908H9.67212ZM13.2322 10.6016C13.6957 10.22 14.1019 9.76427 14.4342 9.24852C15.0643 8.2708 15.4006 7.12131 15.4006 5.94542C15.4006 4.3686 14.7965 2.85636 13.7212 1.74137C12.6458 0.62639 11.1874 0 9.66667 0C8.53261 0 7.42401 0.348693 6.48108 1.00198C5.53814 1.65527 4.80321 2.58382 4.36922 3.67021C3.93524 4.75659 3.82169 5.95201 4.04293 7.10531C4.26417 8.25861 4.81028 9.31798 5.61218 10.1495C5.76726 10.3103 5.93056 10.4612 6.10115 10.6016C5.0397 10.995 4.06437 11.6293 3.25208 12.4716C1.8101 13.9668 1 15.9947 1 18.1092C1 18.6106 1.19213 19.0916 1.53411 19.4462C1.8761 19.8008 2.33993 20 2.82357 20H16.5098C16.9934 20 17.4572 19.8008 17.7992 19.4462C18.1412 19.0916 18.3333 18.6106 18.3333 18.1092C18.3333 15.9947 17.5232 13.9668 16.0813 12.4716C15.269 11.6293 14.2936 10.995 13.2322 10.6016Z"/>
</svg>
