<svg xmlns="http://www.w3.org/2000/svg" width="28.5" height="34.2" viewBox="0 0 28.5 34.2">
  <path id="assept-document" d="M27.579,7.889,22.611,2.921A9.909,9.909,0,0,0,15.559,0H9.125A7.134,7.134,0,0,0,2,7.125v19.95A7.134,7.134,0,0,0,9.125,34.2h14.25A7.134,7.134,0,0,0,30.5,27.075V14.941a9.909,9.909,0,0,0-2.921-7.052ZM25.564,9.9a7.151,7.151,0,0,1,1.113,1.5H20.525A1.425,1.425,0,0,1,19.1,9.975V3.823a7.151,7.151,0,0,1,1.5,1.113ZM27.65,27.075a4.275,4.275,0,0,1-4.275,4.275H9.125A4.275,4.275,0,0,1,4.85,27.075V7.125A4.275,4.275,0,0,1,9.125,2.85h6.434c.235,0,.46.046.691.067V9.975a4.275,4.275,0,0,0,4.275,4.275h7.058c.021.231.067.456.067.691Zm-4.668-8.107a1.425,1.425,0,0,1-.05,2.014l-5.114,4.865a4.275,4.275,0,0,1-6.022-.024L9.6,23.864a1.426,1.426,0,1,1,1.9-2.129l2.259,2.015a1.425,1.425,0,0,0,2.075.057l5.13-4.889a1.425,1.425,0,0,1,2.019.05Z" transform="translate(-2 0)" fill="#16161d"/>
</svg>
