<svg xmlns="http://www.w3.org/2000/svg" width="37" height="36.648" viewBox="0 0 37 36.648">
  <g id="Group_31290" data-name="Group 31290" transform="translate(-1666 -129)">
    <g id="Group_31289" data-name="Group 31289" transform="translate(1666 129)">
      <g id="Ellipse_3424" data-name="Ellipse 3424" fill="none" stroke="#16161d" stroke-linecap="round" stroke-width="2" stroke-dasharray="2 6">
        <circle cx="18.324" cy="18.324" r="18.324" stroke="none"/>
        <circle cx="18.324" cy="18.324" r="17.324" fill="none"/>
      </g>
    </g>
    <path id="time-twenty-four" d="M20.041,18.5V10.789a1.541,1.541,0,1,0-3.083,0v6.166H12.333a1.541,1.541,0,1,0,0,3.083H18.5A1.541,1.541,0,0,0,20.041,18.5ZM35.455,3.082a1.541,1.541,0,0,0-1.541,1.541V8.283a18.5,18.5,0,1,0-22.141,27.45,1.565,1.565,0,0,0,.561.1,1.541,1.541,0,0,0,.561-2.978,15.414,15.414,0,1,1,18.917-22.07H27.748a1.541,1.541,0,0,0,0,3.083h4.624A4.624,4.624,0,0,0,37,9.248V4.624a1.541,1.541,0,0,0-1.541-1.541Z" transform="translate(1666.003 128.999)" fill="#16161d"/>
  </g>
</svg>
